# xmcd
#
# Track frame offsets:
#	150
#	14253
#	29994
#	46871
#	60744
#	78619
#	95447
#	113462
#	131832
#	146350
#	164226
#	180025
#	197998
#	218486
#	235436
#	251706
#
# Disc length: 3567 seconds
#
# Revision: 0
# Processed by: cddbd v1.5.2PL0 Copyright (c) Steve Scherf et al.
# Submitted via: audiograbber 1.83.01
#
DISCID=e20ded10
DTITLE=JonesTM - HC200817
DYEAR=2008
DGENRE=Country
TTITLE0=Chris Young - Voices
TTITLE1=Brooks and Dunn - Put A Girl In It
TTITLE2=Bailey Grey - Let The Music Play
TTITLE3=Darius Rucker - Don't Think I Don't Think About It
TTITLE4=Erykah Badu - Soldier [Radio Edit]
TTITLE5=Usher - Love In This Club [Clean No Rap]
TTITLE6=Janet Jackson - Can't B Good [Radio Edit]
TTITLE7=R. Kelly - Hair Braider [Main Version - Clean]
TTITLE8=Alicia Keys - Teenage Love Affair [Album Version]
TTITLE9=Lawson Rollins Feat. Flora Purim And Justin Claveria - Infinita [Radio 
TTITLE9=Edit With Vocals]
TTITLE10=Lawson Rollins Feat. Justin Claveria - Infinita [Instrumental Radio Ed
TTITLE10=it]
TTITLE11=Hil St. Soul - The Sweetest Days [Radio Edit]
TTITLE12=Voodoo Village - Good Day [Album Version]
TTITLE13=David Benoit - Human Nature [Radio Edit]
TTITLE14=Eric Darius - Goin' All Out [Radio Edit]
TTITLE15=Jay Soto - Stay Awhile [Radio Edit]
EXTD=
EXTT0=
EXTT1=
EXTT2=
EXTT3=
EXTT4=
EXTT5=
EXTT6=
EXTT7=
EXTT8=
EXTT9=
EXTT10=
EXTT11=
EXTT12=
EXTT13=
EXTT14=
EXTT15=
PLAYORDER=
